<svg width="146" height="40" viewBox="0 0 146 40" fill="none" xmlns="http://www.w3.org/2000/svg">
<path d="M17.2524 23.0029C17.2524 24.8157 17.3279 26.5511 17.5172 27.5925H12.3361L11.9957 25.703H11.8822C10.6721 27.2073 8.78106 28.017 6.58786 28.017C2.84356 28.0167 0.612442 25.2399 0.612442 22.2316C0.612442 17.3332 4.92347 14.9809 11.4663 15.0196V14.7495C11.4663 13.7467 10.9369 12.3195 8.10052 12.3195C6.20953 12.3195 4.20508 12.9754 2.99492 13.7467L1.93612 9.96691C3.22189 9.23427 5.75573 8.30884 9.12148 8.30884C15.2859 8.30884 17.2524 12.0111 17.2524 16.4466V23.0029ZM11.6553 18.6834C8.62999 18.6447 6.28513 19.378 6.28513 21.653C6.28513 23.157 7.2684 23.8902 8.55409 23.8902C9.21625 23.89 9.86146 23.6811 10.3978 23.2933C10.9342 22.9055 11.3345 22.3585 11.5415 21.7303C11.6188 21.4017 11.6569 21.0651 11.655 20.7275L11.6553 18.6834Z" fill="white"/>
<path d="M21.752 22.463C22.8111 23.1186 25.0045 23.89 26.7062 23.89C28.4458 23.89 29.1645 23.2728 29.1645 22.3089C29.1645 21.3451 28.5972 20.882 26.4418 20.149C22.6219 18.8375 21.1471 16.7163 21.185 14.5181C21.185 10.9699 24.1347 8.30884 28.7107 8.30884C30.8663 8.30884 32.7948 8.81008 33.9298 9.3886L32.9085 13.4382C32.0764 12.9753 30.4881 12.3581 28.8996 12.3581C27.5004 12.3581 26.7062 12.9367 26.7062 13.9008C26.7062 14.7875 27.4249 15.2504 29.6939 16.0604C33.211 17.2945 34.6861 19.1073 34.7237 21.8841C34.7237 25.3939 32.0009 28.0163 26.7062 28.0163C24.2858 28.0163 22.1303 27.438 20.7311 26.6664L21.752 22.463Z" fill="white"/>
<path d="M55.7122 24.8544C55.7122 28.4799 54.9935 31.4495 52.9135 33.3393C50.8714 35.1134 48.1106 35.6535 45.3878 35.6535C42.9674 35.6535 40.3957 35.152 38.7316 34.1877L39.8661 29.7525C41.0384 30.4466 43.0807 31.1795 45.2363 31.1795C47.959 31.1795 50.0392 29.6755 50.0392 26.2044V24.9701H49.9636C48.8669 26.5512 47.0895 27.4384 44.9715 27.4384C40.3956 27.4384 37.1433 23.6586 37.1433 18.2206C37.1433 12.1655 41.0005 8.30884 45.5388 8.30884C48.0726 8.30884 49.6611 9.42743 50.6065 10.9701H50.682L50.8713 8.73288H55.863C55.7875 9.92867 55.7119 11.51 55.7119 14.3252L55.7122 24.8544ZM49.9636 16.4079C49.9674 16.0448 49.9293 15.6825 49.8502 15.3282C49.4342 13.7855 48.3375 12.7441 46.749 12.7441C44.6691 12.7441 42.9673 14.6725 42.9673 18.105C42.9673 20.9204 44.3287 23.1187 46.749 23.1187C48.2241 23.1187 49.3963 22.1162 49.7746 20.7274C49.9258 20.3034 49.9636 19.6863 49.9636 19.1848V16.4079Z" fill="white"/>
<path d="M75.7547 23.003C75.7547 24.8158 75.8302 26.5512 76.0195 27.5926H70.8383L70.4976 25.7031H70.3842C69.1742 27.2074 67.2833 28.0172 65.0898 28.0172C61.3458 28.0172 59.1144 25.2404 59.1144 22.2321C59.1144 17.3337 63.4254 14.9814 69.9688 15.02V14.75C69.9688 13.7472 69.4391 12.32 66.6028 12.32C64.7118 12.32 62.7076 12.9759 61.4975 13.7472L60.4384 9.96739C61.7244 9.23476 64.258 8.30933 67.624 8.30933C73.7884 8.30933 75.7549 12.0116 75.7549 16.4471L75.7547 23.003ZM70.1575 18.6836C67.1322 18.6449 64.7873 19.3782 64.7873 21.6532C64.7873 23.1572 65.7706 23.8904 67.0563 23.8904C67.7185 23.8902 68.3638 23.6814 68.9002 23.2936C69.4366 22.9058 69.8369 22.3588 70.044 21.7305C70.1212 21.4018 70.1593 21.0652 70.1574 20.7277L70.1575 18.6836Z" fill="white"/>
<path d="M84.7549 4.4519V8.92574H89.5197V11.5098H84.7549V21.576C84.7549 23.89 85.3975 25.2012 87.2507 25.2012C88.1583 25.2012 88.6879 25.1241 89.1794 24.97L89.3304 27.5154C88.6878 27.7852 87.6666 28.0167 86.3808 28.0167C84.8302 28.0167 83.5821 27.4767 82.7879 26.5511C81.8425 25.5483 81.5021 23.8899 81.5021 21.6917V11.5098H78.6657V8.92574H81.5021V5.49299L84.7549 4.4519Z" fill="white"/>
<path d="M94.8895 18.8762C94.965 23.4658 97.8391 25.3555 101.167 25.3555C103.55 25.3555 104.987 24.9315 106.235 24.3911L106.802 26.8211C105.63 27.361 103.625 28.0166 100.714 28.0166C95.0785 28.0166 91.7128 24.1983 91.7128 18.5677C91.7128 12.937 94.9651 8.50146 100.297 8.50146C106.273 8.50146 107.861 13.8623 107.861 17.2948C107.855 17.8237 107.818 18.3518 107.748 18.8761L94.8895 18.8762ZM104.647 16.4465C104.684 14.2866 103.777 10.9312 100.033 10.9312C96.6667 10.9312 95.192 14.0938 94.9274 16.4465H104.647Z" fill="white"/>
<path d="M125.029 26.8982C124.159 27.361 122.231 28.0168 119.773 28.0168C114.251 28.0168 110.659 24.1601 110.659 18.4521C110.659 12.7056 114.516 8.54004 120.491 8.54004C122.458 8.54004 124.197 9.04158 125.105 9.50444L124.349 12.1264C123.554 11.6635 122.307 11.2393 120.491 11.2393C116.294 11.2393 114.025 14.4019 114.025 18.2973C114.025 22.617 116.747 25.2781 120.378 25.2781C122.269 25.2781 123.517 24.7769 124.462 24.3524L125.029 26.8982Z" fill="white"/>
<path d="M128.924 0.209473H132.252V11.8567H132.328C132.887 10.8562 133.711 10.029 134.71 9.46597C135.694 8.88737 136.866 8.50186 138.114 8.50186C140.572 8.50186 144.505 10.0445 144.505 16.4855V27.5925H141.177V16.8707C141.177 13.8625 140.08 11.317 136.941 11.317C134.786 11.317 133.084 12.8597 132.479 14.7108C132.29 15.1737 132.252 15.6752 132.252 16.3308V27.5925H128.924L128.924 0.209473Z" fill="white"/>
<path d="M76.8361 36.5988C76.8305 36.9344 76.8532 37.2699 76.9039 37.6018H76.2252L76.1658 37.0742H76.1405C75.9968 37.2711 75.8077 37.4304 75.5892 37.5388C75.3707 37.6472 75.1293 37.7014 74.8854 37.6969C74.0543 37.6969 73.6303 37.1002 73.6303 36.4948C73.6303 35.483 74.5122 34.9294 76.098 34.9382V34.8518C76.098 34.5058 76.005 33.883 75.1653 33.883C74.7869 33.8844 74.4166 33.9923 74.0967 34.1943L73.9271 33.6927C74.3323 33.4436 74.8001 33.3146 75.2758 33.321C76.5309 33.321 76.8364 34.1943 76.8364 35.0334L76.8361 36.5988ZM76.115 35.4656C75.3011 35.4483 74.3768 35.5953 74.3768 36.4083C74.3768 36.901 74.6988 37.1346 75.0804 37.1346C75.2991 37.1391 75.5134 37.0735 75.692 36.9474C75.8706 36.8213 76.0041 36.6414 76.0728 36.434C76.0991 36.3559 76.1133 36.2742 76.1151 36.1918L76.115 35.4656Z" fill="white"/>
<path d="M80.7366 32.4128V33.4161H81.8052V33.9958H80.7366V36.2527C80.7366 36.7718 80.881 37.0657 81.2963 37.0657C81.4424 37.0716 81.5885 37.0541 81.729 37.0139L81.7629 37.5842C81.5516 37.6634 81.3271 37.7016 81.1014 37.6966C80.7538 37.6966 80.4739 37.5754 80.2959 37.3681C80.0836 37.143 80.0077 36.7715 80.0077 36.2788V33.9955H79.3709V33.4161H80.0077V32.6465L80.7366 32.4128Z" fill="white"/>
<path d="M83.0096 35.6473C83.0266 36.6764 83.6711 37.1003 84.4175 37.1003C84.9518 37.1003 85.2738 37.0053 85.5534 36.884L85.6809 37.4288C85.2506 37.6161 84.7847 37.7076 84.3155 37.697C83.0521 37.697 82.2971 36.8409 82.2971 35.5783C82.2971 34.3156 83.0265 33.321 84.2221 33.321C85.5621 33.321 85.9182 34.5231 85.9182 35.2928C85.9168 35.4114 85.9082 35.5298 85.8926 35.6473H83.0096ZM85.1974 35.1025C85.2058 34.6183 85.0025 33.8659 84.1631 33.8659C83.4081 33.8659 83.0773 34.575 83.0182 35.1025H85.1974Z" fill="white"/>
<path d="M89.6414 36.9534H89.6242C89.4037 37.3685 88.9458 37.697 88.2844 37.697C87.3261 37.697 86.5458 36.8494 86.5458 35.5783C86.5458 34.0128 87.538 33.321 88.4029 33.321C89.0391 33.321 89.4631 33.641 89.6666 34.0474H89.6836L89.7091 33.4159H90.413C90.3958 33.7705 90.3875 34.1341 90.3875 34.5665V39.3143H89.6414V36.9534ZM89.6414 35.111C89.6429 35.0034 89.6315 34.8961 89.6072 34.7913C89.5547 34.5469 89.42 34.3279 89.2256 34.1706C89.0312 34.0132 88.7888 33.9271 88.5386 33.9265C87.7669 33.9265 87.3007 34.5925 87.3007 35.5349C87.3007 36.3652 87.6905 37.0916 88.513 37.0916C88.9961 37.0916 89.4121 36.7888 89.5816 36.2612C89.6185 36.1436 89.6385 36.0214 89.6411 35.8982L89.6414 35.111Z" fill="white"/>
<path d="M91.6172 34.5488C91.6172 34.1164 91.6086 33.7619 91.5831 33.4156H92.2448L92.287 34.1077H92.3042C92.436 33.8646 92.6324 33.6625 92.8718 33.5237C93.1112 33.3849 93.3843 33.3147 93.661 33.3209C94.2291 33.3209 95.111 33.667 95.111 35.1024V37.6018H94.3649V35.1891C94.3649 34.5146 94.1189 33.9528 93.4152 33.9528C92.9231 33.9528 92.5417 34.3071 92.4145 34.7307C92.3784 34.8454 92.3613 34.9652 92.3637 35.0855V37.6021H91.6171L91.6172 34.5488Z" fill="white"/>
<path d="M96.7393 35.6473C96.7562 36.6764 97.4008 37.1003 98.1471 37.1003C98.6814 37.1003 99.0034 37.0053 99.2833 36.884L99.4108 37.4288C98.9804 37.616 98.5144 37.7075 98.0451 37.697C96.7817 37.697 96.027 36.8409 96.027 35.5783C96.027 34.3156 96.7562 33.321 97.952 33.321C99.2918 33.321 99.6478 34.5231 99.6478 35.2928C99.6464 35.4114 99.638 35.5298 99.6225 35.6473H96.7393ZM98.9274 35.1025C98.9357 34.6183 98.7322 33.8659 97.8928 33.8659C97.1378 33.8659 96.8073 34.575 96.7479 35.1025H98.9274Z" fill="white"/>
<path d="M100.844 33.416L101.743 35.8895C101.836 36.1665 101.938 36.495 102.006 36.7459H102.022C102.099 36.495 102.183 36.175 102.286 35.8723L103.1 33.4158H103.889L102.769 36.3996C102.235 37.8354 101.87 38.5702 101.361 39.0202C101.105 39.262 100.789 39.4321 100.446 39.5132L100.259 38.8732C100.499 38.7922 100.72 38.6659 100.912 38.5011C101.184 38.2708 101.399 37.9808 101.54 37.6538C101.57 37.5971 101.59 37.5356 101.599 37.472C101.592 37.4035 101.575 37.3365 101.548 37.2732L100.029 33.416H100.844Z" fill="white"/>
<path d="M107.416 36.5987C107.411 36.9343 107.434 37.2698 107.484 37.6017H106.806L106.746 37.0741H106.721C106.577 37.271 106.388 37.4304 106.17 37.5387C105.951 37.6471 105.71 37.7013 105.466 37.6968C104.635 37.6968 104.211 37.1001 104.211 36.4947C104.211 35.4829 105.093 34.9293 106.679 34.9381V34.8517C106.679 34.5057 106.585 33.8829 105.746 33.8829C105.367 33.8844 104.997 33.9922 104.677 34.1942L104.508 33.6926C104.913 33.4434 105.38 33.3145 105.856 33.3208C107.111 33.3208 107.416 34.1941 107.416 35.0332L107.416 36.5987ZM106.695 35.4655C105.881 35.4482 104.957 35.5952 104.957 36.4082C104.957 36.9009 105.279 37.1345 105.661 37.1345C105.88 37.139 106.094 37.0733 106.272 36.9473C106.451 36.8212 106.584 36.6412 106.653 36.4339C106.68 36.3558 106.694 36.2741 106.695 36.1917V35.4655Z" fill="white"/>
<path d="M109.485 32.4128V33.4161H110.554V33.9958H109.485V36.2527C109.485 36.7718 109.63 37.0657 110.045 37.0657C110.191 37.0716 110.337 37.0541 110.478 37.0139L110.512 37.5842C110.3 37.6634 110.076 37.7016 109.85 37.6966C109.503 37.6966 109.223 37.5754 109.045 37.3681C108.833 37.143 108.756 36.7715 108.756 36.2788V33.9955H108.12V33.4161H108.756V32.6465L109.485 32.4128Z" fill="white"/>
<path d="M116.117 37.4464C115.748 37.6183 115.345 37.704 114.939 37.6971C113.7 37.6971 112.895 36.8322 112.895 35.5523C112.895 34.2636 113.76 33.3297 115.1 33.3297C115.456 33.3257 115.809 33.3996 116.134 33.5461L115.965 34.1342C115.787 34.0304 115.507 33.9352 115.1 33.9352C114.158 33.9352 113.65 34.6443 113.65 35.5179C113.65 36.4866 114.26 37.0833 115.074 37.0833C115.391 37.0845 115.705 37.0135 115.99 36.8757L116.117 37.4464Z" fill="white"/>
<path d="M120.654 35.4743C120.654 37.0224 119.603 37.6969 118.61 37.6969C117.499 37.6969 116.643 36.8666 116.643 35.5434C116.643 34.1425 117.542 33.3208 118.678 33.3208C119.857 33.321 120.654 34.1943 120.654 35.4743ZM117.398 35.5177C117.398 36.4343 117.915 37.1261 118.644 37.1261C119.357 37.1261 119.891 36.4428 119.891 35.5001C119.891 34.791 119.543 33.8917 118.661 33.8917C117.779 33.8917 117.398 34.7219 117.398 35.5176L117.398 35.5177Z" fill="white"/>
<path d="M121.596 34.549C121.596 34.1165 121.587 33.762 121.562 33.4158H122.215L122.249 34.0903H122.274C122.503 33.6927 122.885 33.3209 123.563 33.3209C124.123 33.3209 124.547 33.6669 124.725 34.1597H124.742C124.855 33.9481 125.011 33.7625 125.2 33.6148C125.458 33.4123 125.78 33.3081 126.107 33.3209C126.65 33.3209 127.456 33.6842 127.456 35.1369V37.6017H126.726V35.2323C126.726 34.428 126.438 33.9435 125.836 33.9435C125.412 33.9435 125.081 34.2635 124.954 34.6356C124.915 34.7586 124.895 34.8868 124.895 35.0158V37.6018H124.165V35.0941C124.165 34.428 123.877 33.9435 123.309 33.9435C122.843 33.9435 122.503 34.3242 122.385 34.705C122.343 34.8244 122.323 34.9502 122.325 35.0765V37.6019H121.596L121.596 34.549Z" fill="white"/>
<path d="M128.669 34.7825C128.669 34.2465 128.651 33.814 128.634 33.4159H129.304L129.338 34.134H129.356C129.66 33.6235 130.144 33.321 130.814 33.321C131.806 33.321 132.552 34.1771 132.552 35.4486C132.552 36.9534 131.653 37.697 130.687 37.697C130.144 37.697 129.669 37.4548 129.423 37.0397H129.406V39.3142H128.669V34.7825ZM129.406 35.8983C129.408 36.0028 129.42 36.107 129.44 36.2095C129.5 36.4619 129.642 36.6871 129.845 36.8486C130.048 37.0102 130.3 37.0989 130.56 37.1003C131.348 37.1003 131.806 36.4431 131.806 35.4831C131.806 34.644 131.374 33.9265 130.585 33.9265C130.076 33.9265 129.601 34.2983 129.457 34.8689C129.427 34.9702 129.41 35.0749 129.406 35.1805L129.406 35.8983Z" fill="white"/>
<path d="M136.377 36.5987C136.372 36.9343 136.394 37.2698 136.445 37.6017H135.766L135.707 37.0741H135.682C135.538 37.271 135.349 37.4304 135.13 37.5387C134.912 37.6471 134.671 37.7013 134.427 37.6968C133.596 37.6968 133.172 37.1001 133.172 36.4947C133.172 35.4829 134.053 34.9293 135.639 34.938V34.8517C135.639 34.5057 135.546 33.8829 134.706 33.8829C134.328 33.8843 133.958 33.9922 133.638 34.1941L133.468 33.6926C133.873 33.4435 134.341 33.3145 134.817 33.3208C136.072 33.3208 136.377 34.1941 136.377 35.0332L136.377 36.5987ZM135.656 35.4655C134.842 35.4482 133.918 35.5952 133.918 36.4081C133.918 36.9009 134.24 37.1345 134.622 37.1345C134.84 37.139 135.055 37.0733 135.233 36.9473C135.412 36.8212 135.545 36.6412 135.614 36.4339C135.64 36.3558 135.655 36.2741 135.656 36.1917V35.4655Z" fill="white"/>
<path d="M137.581 34.5488C137.581 34.1163 137.573 33.7618 137.547 33.4156H138.209L138.251 34.1076H138.268C138.4 33.8645 138.596 33.6624 138.836 33.5236C139.075 33.3847 139.348 33.3145 139.625 33.3207C140.193 33.3207 141.075 33.6667 141.075 35.1022V37.6015H140.329V35.1889C140.329 34.5144 140.083 33.9525 139.379 33.9525C138.887 33.9525 138.505 34.3068 138.378 34.7304C138.342 34.8451 138.325 34.965 138.327 35.0852V37.6018H137.581L137.581 34.5488Z" fill="white"/>
<path d="M142.449 33.416L143.348 35.8895C143.441 36.1665 143.543 36.495 143.611 36.7459H143.628C143.704 36.495 143.789 36.175 143.891 35.8723L144.705 33.4158H145.494L144.374 36.3996C143.84 37.8354 143.475 38.5702 142.966 39.0202C142.71 39.262 142.394 39.432 142.05 39.5132L141.864 38.8732C142.104 38.7922 142.325 38.6659 142.517 38.5011C142.789 38.2709 143.004 37.9809 143.145 37.6538C143.175 37.5971 143.195 37.5356 143.204 37.472C143.197 37.4035 143.18 37.3365 143.153 37.2732L141.635 33.416H142.449Z" fill="white"/>
</svg>
